<svg version="1.1" xmlns="http://www.w3.org/2000/svg" xmlns:xlink="http://www.w3.org/1999/xlink" width="922.0094604492188" height="320.82537841796875"><defs></defs><g transform="translate(-320.41387939453125,223.5538330078125)"><rect fill="rgb(255,255,255)" stroke="none" x="0" y="0" width="922.0094604492188" height="320.82537841796875" fill-opacity="0" transform="translate(320.41387939453125,-223.5538330078125)"></rect><g transform="translate(461.8796938366256,182.34500952252918) rotate(-10.999999999999998,0,0) translate(-461.8796938366256,-182.34500952252918) matrix(1,0,0.5773502691896257,1,461.8796938366256,182.34500952252918)"><path fill="rgb(0,0,0)" fill-opacity="1" d="M108.70-200.88L108.70-200.88Q108.70-196.75 123.71-192.96L123.71-192.96Q132.29-190.98 144.50-189.66L144.50-189.66Q129.16-203.35 114.14-203.35L114.14-203.35Q108.70-203.35 108.70-200.88ZM174.04-156.82L174.04-156.82Q177.50-156.82 191.20-184.05L191.20-184.05Q172.72-183.72 168.18-183.72Q163.64-183.72 155.39-184.05L155.39-184.05Q165.13-172.33 171.23-159.13L171.23-159.13Q172.22-156.82 174.04-156.82ZM225.68-268.53L225.68-268.53Q220.24-268.53 211.16-256.90Q202.09-245.26 187.15-223.98Q172.22-202.69 159.35-188.67L159.35-188.67Q170.90-188.34 179.56-188.34Q188.23-188.34 193.51-188.67L193.51-188.67Q205.22-211.77 216.36-237.51Q227.50-263.25 227.50-267.04L227.50-267.04Q227.50-268.53 225.68-268.53ZM202.42-189.00L202.42-189.00L236.74-191.47Q238.06-191.47 238.06-190.15Q238.06-188.83 235.83-187.35Q233.60-185.86 227.17-185.37Q220.73-184.87 199.94-184.38L199.94-184.38Q183.11-151.54 176.18-151.54L176.18-151.54Q171.56-151.54 169.58-155.67L169.58-155.67Q162.32-170.35 152.59-181.41L152.59-181.41L147.80-176.79Q123.38-154.02 90.88-154.02L90.88-154.02Q82.63-154.02 76.44-155.26Q70.25-156.49 70.25-158.64L70.25-158.64Q70.25-160.12 72.07-160.12L72.07-160.12Q73.22-160.12 74.87-159.46L74.87-159.46Q79.82-157.48 93.52-157.48L93.52-157.48Q118.10-157.48 140.05-176.79L140.05-176.79Q147.97-184.21 148.13-184.38L148.13-184.38Q132.62-185.53 122.06-188.50L122.06-188.50Q103.25-193.78 103.25-201.04L103.25-201.04Q103.25-203.52 105.97-205.17Q108.70-206.82 113.15-206.82L113.15-206.82Q132.79-206.82 150.44-189.16L150.44-189.16Q151.93-189.16 152.59-189.00L152.59-189.00Q167.27-204.84 188.39-233.88L188.39-233.88Q195.82-243.94 203.24-253.35L203.24-253.35Q218.75-272.82 228.65-272.82L228.65-272.82Q235.09-272.82 235.09-267.21L235.09-267.21Q235.09-263.41 224.44-237.59Q213.80-211.77 202.42-189.00ZM270.23-180.25L273.70-183.06Q274.85-183.88 275.84-183.88Q276.83-183.88 276.83-182.73L276.83-182.73L276.83-182.40Q264.46-172.50 252.41-163.84Q240.37-155.17 234.76-155.17L234.76-155.17Q230.63-155.17 230.63-159.63Q230.63-164.08 234.59-168.54Q238.55-172.99 242.43-176.29Q246.31-179.59 246.31-180.67Q246.31-181.74 245.07-183.14Q243.83-184.54 243.01-185.04L243.01-185.04Q240.20-182.23 230.80-174.81L230.80-174.81L230.14-177.28Q240.53-185.53 242.18-188.34L242.18-188.34L242.18-189.82Q242.18-193.95 243.01-195.43Q243.83-196.92 246.97-199.56Q250.10-202.20 251.26-202.20Q252.41-202.20 253.32-201.37Q254.23-200.55 254.23-199.72Q254.23-198.90 253.65-197.83Q253.07-196.75 252.49-196.01Q251.92-195.27 250.93-194.20Q249.94-193.12 249.69-192.71Q249.44-192.30 249.19-191.31Q248.95-190.32 248.12-189.66Q247.30-189.00 247.30-188.01Q247.30-187.02 248.62-183.64Q249.94-180.25 249.94-178.69Q249.94-177.12 243.83-171.26Q237.73-165.40 237.73-161.77L237.73-161.77Q237.73-159.79 239.54-159.79L239.54-159.79Q241.85-159.79 248.12-163.92L248.12-163.92L250.10-165.24Q260.83-172.66 270.23-180.25L270.23-180.25ZM301.75-179.43L306.37-183.06Q307.69-183.88 308.59-183.88Q309.50-183.88 309.50-182.73L309.50-182.73L309.50-182.40Q296.80-171.67 282.69-162.27Q268.58-152.86 264.79-152.86Q260.99-152.86 258.43-154.27Q255.88-155.67 255.88-157.48Q255.88-159.30 256.87-160.54Q257.86-161.77 258.68-161.77Q259.51-161.77 261.40-159.22Q263.30-156.66 265.12-156.66L265.12-156.66Q268.91-156.66 271.06-164.74Q273.20-172.83 273.20-175.88Q273.20-178.93 272.79-178.93Q272.38-178.93 272.05-178.60L272.05-178.60L267.26-174.81L266.60-177.28Q277.00-185.53 278.65-188.34L278.65-188.34Q279.64-190.98 281.45-190.98L281.45-190.98Q282.61-190.98 282.61-190.15Q282.61-189.33 281.45-186.61Q280.30-183.88 278.40-174.31Q276.50-164.74 276.50-163.26Q276.50-161.77 277.33-161.77L277.33-161.77Q288.88-168.87 301.75-179.43L301.75-179.43ZM342.17-179.59L346.30-183.06Q347.45-183.88 348.44-183.88Q349.43-183.88 349.43-182.73L349.43-182.73L349.43-182.40Q332.27-168.21 323.36-162.60L323.36-162.60Q311.81-153.85 303.89-153.85L303.89-153.85Q296.96-153.85 296.96-162.10L296.96-162.10Q296.96-173.16 311.23-194.86Q325.51-216.55 343.33-233.88Q361.15-251.20 370.22-251.20L370.22-251.20Q374.35-251.20 374.35-247.57L374.35-247.57Q374.35-238.50 352.65-217.63Q330.95-196.75 310.00-182.07L310.00-182.07Q303.89-170.35 303.89-164.25Q303.89-158.14 308.18-158.14Q312.47-158.14 319.40-163.09L319.40-163.09Q331.12-170.02 342.17-179.59L342.17-179.59ZM366.10-245.92L366.10-245.92Q359.17-245.92 341.51-225.96Q323.86-205.99 312.31-186.03L312.31-186.03Q331.28-199.56 349.43-219.11Q367.58-238.66 367.58-244.44L367.58-244.44Q367.58-245.92 366.10-245.92ZM363.46-175.47L363.46-175.47Q362.47-175.47 362.47-176.21Q362.47-176.95 363.62-177.94L363.62-177.94Q369.07-182.40 369.07-186.03L369.07-186.03Q369.07-188.34 364.94-188.67L364.94-188.67Q357.52-188.50 347.20-177.94Q336.89-167.38 336.89-162.10L336.89-162.10Q336.89-160.29 338.95-160.29Q341.02-160.29 344.48-163.09L344.48-163.09Q347.62-165.07 356.20-172.99L356.20-172.99Q358.18-174.97 359.99-174.97L359.99-174.97Q362.30-174.97 362.30-172.83L362.30-172.83Q362.30-172.00 361.81-171.51Q361.31-171.01 359.99-169.45Q358.67-167.88 357.68-166.56L357.68-166.56Q354.71-162.27 354.71-160.95L354.71-160.95Q354.71-157.65 357.35-157.65L357.35-157.65Q360.82-157.65 370.39-164.00Q379.96-170.35 387.88-176.79L387.88-176.79L395.80-183.06Q396.95-183.88 397.94-183.88Q398.93-183.88 398.93-182.73L398.93-182.73L398.93-182.40Q386.23-171.67 372.12-162.27Q358.01-152.86 353.56-152.86L353.56-152.86Q348.28-152.86 348.28-158.47L348.28-158.47Q348.28-159.79 348.77-160.95Q349.27-162.10 349.27-162.60Q349.27-163.09 348.94-163.26L348.94-163.26Q348.44-163.26 342.58-158.80Q336.73-154.35 332.35-154.35Q327.98-154.35 327.98-158.97Q327.98-163.59 334.17-171.43Q340.36-179.26 350.75-185.70Q361.15-192.13 371.05-192.13L371.05-192.13Q373.36-192.13 374.92-190.98Q376.49-189.82 376.49-187.43Q376.49-185.04 371.71-180.25Q366.92-175.47 363.46-175.47ZM462.79-183.06L462.79-182.56Q427.97-153.52 419.72-153.52L419.72-153.52Q414.94-153.52 414.94-157.48Q414.94-161.44 418.48-166.89Q422.03-172.33 425.58-176.54Q429.13-180.75 429.13-181.57Q429.13-182.40 428.63-182.40L428.63-182.40Q413.29-172.17 410.40-169.86Q407.51-167.55 400.99-162.27Q394.48-156.99 392.50-155.67Q390.52-154.35 388.21-154.35L388.21-154.35Q385.90-154.35 385.90-156.33L385.90-156.33Q385.90-158.64 395.14-170.85L395.14-170.85Q404.05-183.06 404.05-184.54L404.05-184.54Q404.05-184.87 403.47-184.87Q402.89-184.87 389.20-174.81L389.20-174.81L388.54-177.28Q400.25-186.69 404.38-189.33Q408.50-191.97 411.06-191.97Q413.62-191.97 413.62-189.49L413.62-189.49Q413.62-187.84 404.29-176.05Q394.97-164.25 394.97-163.34Q394.97-162.43 395.55-162.43Q396.13-162.43 414.36-175.72Q432.59-189.00 436.55-189.00L436.55-189.00Q437.71-189.00 438.78-188.09Q439.85-187.18 439.85-186.36L439.85-186.36Q439.85-184.38 431.11-173.24Q422.36-162.10 422.36-160.62Q422.36-159.13 424.42-159.13Q426.49-159.13 433.25-163.59L433.25-163.59Q445.63-171.67 456.02-180.25L456.02-180.25L459.65-183.22Q460.81-184.05 461.80-184.05Q462.79-184.05 462.79-183.06L462.79-183.06ZM570.53-264.40L569.21-262.42Q560.63-254.01 532.25-211.60L532.25-211.60Q555.52-215.89 561.04-215.89Q566.57-215.89 572.51-213.75Q578.45-211.60 578.45-208.96L578.45-208.96Q578.45-207.97 577.54-207.31Q576.64-206.65 575.73-206.65Q574.82-206.65 567.23-208.96Q559.64-211.27 552.63-211.27Q545.62-211.27 530.11-208.47L530.11-208.47Q499.91-164.25 490.18-155.50L490.18-155.50Q485.23-151.05 482.09-151.05L482.09-151.05Q479.29-151.05 479.29-155.01L479.29-155.01Q479.29-157.15 480.44-160.29Q481.60-163.42 483.58-163.42L483.58-163.42Q484.24-163.42 484.40-162.02Q484.57-160.62 484.90-160.62L484.90-160.62Q488.20-160.62 497.19-172.42Q506.18-184.21 521.86-206.98L521.86-206.98Q502.88-203.35 492.98-203.35L492.98-203.35Q474.01-203.35 474.01-213.34Q474.01-223.32 490.84-238.75Q507.67-254.17 531.76-265.97Q555.85-277.77 573.83-277.77L573.83-277.77Q586.54-277.77 586.54-270.84L586.54-270.84Q586.54-265.56 580.10-259.12Q573.67-252.69 569.87-252.69L569.87-252.69Q568.88-252.69 568.88-253.93Q568.88-255.16 569.54-255.66L569.54-255.66Q573.01-257.31 576.06-260.94Q579.11-264.57 579.11-267.70L579.11-267.70Q579.11-273.64 566.74-273.64Q554.36-273.64 534.07-263.25Q513.77-252.85 498.76-239.16Q483.74-225.46 483.74-216.64Q483.74-207.81 501.07-207.81L501.07-207.81Q507.67-207.81 524.17-210.45L524.17-210.45Q541.82-235.69 549.74-246.09L549.74-246.09Q564.26-264.90 569.71-264.90L569.71-264.90Q570.53-264.90 570.53-264.40L570.53-264.40ZM531.10-163.84Q531.10-161.28 535.63-158.23Q540.17-155.17 544.38-155.17Q548.59-155.17 551.56-155.67L551.56-155.67L555.02-160.29Q550.24-168.87 539.68-168.87L539.68-168.87Q536.05-168.87 533.57-167.63Q531.10-166.39 531.10-163.84ZM557.50-149.56L557.50-149.56Q557.50-150.88 557.17-153.19L557.17-153.19Q516.41-95.28 516.41-89.67L516.41-89.67Q516.41-88.18 518.39-88.18L518.39-88.18Q525.82-88.18 535.14-98.50Q544.46-108.81 550.98-123.41Q557.50-138.01 557.50-149.56ZM604.52-182.73L604.52-182.40Q579.11-161.28 563.11-155.34L563.11-155.34Q563.60-153.03 563.60-150.55L563.60-150.55Q563.60-140.98 558.40-128.86Q553.21-116.73 545.62-106.50Q538.03-96.27 529.03-89.26Q520.04-82.24 512.95-82.24L512.95-82.24Q508.16-82.24 508.16-86.04L508.16-86.04Q508.16-93.46 548.75-151.54L548.75-151.54Q546.28-151.38 545.29-151.38L545.29-151.38Q536.87-151.38 531.92-154.84Q526.97-158.31 526.97-162.52Q526.97-166.72 531.01-169.20Q535.06-171.67 541.00-171.67L541.00-171.67Q551.72-171.67 558.16-164.74L558.16-164.74L595.61-216.06Q595.61-216.39 595.12-216.39L595.12-216.39Q580.76-201.21 569.95-190.81Q559.15-180.42 555.52-177.61L555.52-177.61L551.89-174.81L551.06-177.28Q563.60-187.51 574.33-198.40Q585.05-209.29 589.51-215.07L589.51-215.07L593.96-220.84Q605.35-235.20 607.99-238.17L607.99-238.17Q612.11-242.62 614.42-242.62Q616.73-242.62 616.73-239.82L616.73-239.82Q616.73-237.34 607.00-223.32Q597.26-209.29 591.82-201.54L591.82-201.54Q574.82-177.61 570.70-172.17L570.70-172.17L561.79-159.63L562.28-158.31Q574.66-162.76 589.34-173.65L589.34-173.65L601.39-183.06Q602.71-183.88 603.61-183.88Q604.52-183.88 604.52-182.73L604.52-182.73ZM690.49-225.63L690.49-225.63L666.89-226.78Q652.37-226.78 638.02-225.63L638.02-225.63L638.84-222.33Q638.84-220.51 628.12-208.55Q617.39-196.59 606.67-182.48Q595.94-168.37 595.94-161.61L595.94-161.61Q595.94-158.97 597.84-158.97Q599.74-158.97 606.50-163.59L606.50-163.59Q619.04-171.84 629.44-180.25L629.44-180.25L633.07-183.22Q634.22-184.05 635.05-184.05Q635.87-184.05 635.87-183.06L635.87-183.06L635.87-182.56Q636.53-182.56 627.04-175.30Q617.56-168.04 606.75-160.78Q595.94-153.52 593.14-153.52L593.14-153.52Q588.35-153.52 588.35-157.81L588.35-157.81Q588.35-164.08 595.36-175.14Q602.38-186.19 610.71-196.01Q619.04-205.83 626.55-214.57Q634.06-223.32 634.72-225.30L634.72-225.30Q616.57-223.65 606.83-221.34L606.83-221.34L603.53-220.68Q602.21-220.51 602.21-218.20L602.21-218.20Q602.21-217.21 599.90-217.21Q597.59-217.21 594.21-218.29Q590.83-219.36 590.83-221.34Q590.83-223.32 594.13-223.98L594.13-223.98Q618.55-228.27 628.78-229.18Q639.01-230.08 642.39-230.33Q645.77-230.58 652.95-230.74Q660.13-230.91 662.60-230.91L662.60-230.91Q670.03-231.24 680.01-231.24Q689.99-231.24 692.14-230.41Q694.28-229.59 694.28-227.28L694.28-227.28Q694.28-225.63 690.49-225.63ZM650.47-205.50Q652.04-205.50 652.95-204.51Q653.86-203.52 653.86-201.70Q653.86-199.89 651.38-197.08Q648.91-194.28 647.09-194.28Q645.28-194.28 644.45-195.35Q643.63-196.42 643.63-197.83Q643.63-199.23 646.27-202.36Q648.91-205.50 650.47-205.50ZM660.46-180.25L664.09-183.22Q665.41-184.05 666.15-184.05Q666.89-184.05 666.89-183.06L666.89-183.06L666.89-182.56Q667.55-182.56 658.06-175.30Q648.58-168.04 637.77-160.78Q626.96-153.52 624.16-153.52L624.16-153.52Q619.37-153.52 619.37-157.48L619.37-157.48Q619.37-162.27 627.62-175.55Q635.87-188.83 639.67-188.83L639.67-188.83Q642.47-188.83 642.47-186.69Q642.47-184.54 634.88-174.97Q627.29-165.40 627.29-161.28L627.29-161.28Q627.29-158.97 629.02-158.97Q630.76-158.97 637.69-163.59L637.69-163.59Q650.06-171.84 660.46-180.25L660.46-180.25ZM700.55-202.03L700.55-202.03Q700.55-203.52 698.49-203.52Q696.43-203.52 690.32-199.15Q684.22-194.77 679.27-190.32L679.27-190.32L674.48-186.03Q674.48-185.70 675.47-185.70L675.47-185.70Q677.12-185.70 677.62-183.14Q678.11-180.58 679.43-180.58L679.43-180.58Q683.72-180.58 692.14-189.33Q700.55-198.07 700.55-202.03ZM712.10-179.76L716.23-183.06Q717.38-183.88 718.37-183.88Q719.36-183.88 719.36-182.73L719.36-182.73L719.36-182.40Q706.33-170.85 693.29-162.60L693.29-162.60Q683.56-155.34 677.53-155.34Q671.51-155.34 669.12-159.79Q666.73-164.25 666.73-169.12Q666.73-173.98 667.72-175.80Q668.71-177.61 668.71-178.03Q668.71-178.44 667.72-178.44L667.72-178.44Q666.23-178.44 657.49-167.05Q648.74-155.67 647.75-155.67Q646.76-155.67 645.85-156.25Q644.95-156.82 644.95-157.81Q644.95-158.80 647.34-162.60Q649.73-166.39 662.93-184.87Q676.13-203.35 676.63-204.26Q677.12-205.17 677.12-205.50Q677.12-205.83 676.54-205.83Q675.97-205.83 675.64-205.58Q675.31-205.33 670.69-202.20L670.69-202.20Q660.29-195.10 656.33-195.10Q652.37-195.10 652.37-198.24L652.37-198.24Q652.37-200.88 654.10-202.86Q655.84-204.84 657.98-204.84L657.98-204.84Q658.97-204.84 659.63-202.61Q660.29-200.38 661.78-200.38Q663.26-200.38 665.41-201.54Q667.55-202.69 669.78-204.34Q672.01-205.99 674.89-208.39Q677.78-210.78 679.60-212.43L679.60-212.43Q685.04-217.38 686.20-218.53L686.20-218.53Q689.33-223.81 709.96-248.73L709.96-248.73Q712.43-251.86 714.82-251.86Q717.22-251.86 717.22-250.71Q717.22-249.55 716.39-248.48Q715.57-247.41 704.02-232.48Q692.47-217.54 680.75-201.95Q669.04-186.36 669.04-185.37Q669.04-184.38 669.86-184.38L669.86-184.38Q672.34-187.02 676.21-190.90Q680.09-194.77 689.50-201.29Q698.90-207.81 704.43-207.81Q709.96-207.81 709.96-204.84L709.96-204.84Q709.96-199.39 697.25-188.67Q684.55-177.94 679.60-177.94L679.60-177.94L676.46-178.60Q674.98-178.60 673.99-176.05Q673.00-173.49 673.00-170.19L673.00-170.19Q673.00-160.12 680.59-160.12L680.59-160.12Q684.55-160.12 689.50-163.26L689.50-163.26Q700.06-169.69 712.10-179.76L712.10-179.76ZM766.06-180.25L769.69-183.22Q770.84-184.05 771.83-184.05Q772.82-184.05 772.82-183.06L772.82-183.06L772.82-182.56Q759.79-171.67 747.25-163.09L747.25-163.09Q734.71-153.52 729.84-153.52Q724.97-153.52 724.97-157.48L724.97-157.48Q724.97-161.77 731.24-172.00Q737.51-182.23 737.51-182.98Q737.51-183.72 736.85-183.72L736.85-183.72Q734.71-183.72 723.73-174.23Q712.76-164.74 704.51-156.66L704.51-156.66Q701.38-153.85 700.14-153.85Q698.90-153.85 698.90-155.67Q698.90-157.48 701.05-160.29L701.05-160.29L758.63-248.07Q760.45-250.87 763.50-250.87Q766.55-250.87 766.55-248.89L766.55-248.89Q766.55-247.74 765.64-246.42Q764.74-245.10 754.51-230.66Q744.28-216.22 742.71-213.58Q741.14-210.94 728.35-191.80Q715.57-172.66 714.82-171.59Q714.08-170.52 714.08-169.86Q714.08-169.20 714.66-169.20Q715.24-169.20 715.40-169.36L715.40-169.36Q720.68-174.64 729.84-181.66Q739.00-188.67 742.46-188.67L742.46-188.67Q743.78-188.67 744.77-187.76Q745.76-186.85 745.76-184.79Q745.76-182.73 739.33-173.57Q732.89-164.41 732.89-161.69Q732.89-158.97 734.62-158.97Q736.36-158.97 743.29-163.59L743.29-163.59Q755.66-171.84 766.06-180.25L766.06-180.25ZM786.52-175.47L786.52-175.47Q785.53-175.47 785.53-176.21Q785.53-176.95 786.68-177.94L786.68-177.94Q792.13-182.40 792.13-186.03L792.13-186.03Q792.13-188.34 788.00-188.67L788.00-188.67Q780.58-188.50 770.26-177.94Q759.95-167.38 759.95-162.10L759.95-162.10Q759.95-160.29 762.01-160.29Q764.08-160.29 767.54-163.09L767.54-163.09Q770.68-165.07 779.26-172.99L779.26-172.99Q781.24-174.97 783.05-174.97L783.05-174.97Q785.36-174.97 785.36-172.83L785.36-172.83Q785.36-172.00 784.87-171.51Q784.37-171.01 783.05-169.45Q781.73-167.88 780.74-166.56L780.74-166.56Q777.77-162.27 777.77-160.95L777.77-160.95Q777.77-157.65 780.41-157.65L780.41-157.65Q783.88-157.65 793.45-164.00Q803.02-170.35 810.94-176.79L810.94-176.79L818.86-183.06Q820.01-183.88 821.00-183.88Q821.99-183.88 821.99-182.73L821.99-182.73L821.99-182.40Q809.29-171.67 795.18-162.27Q781.07-152.86 776.62-152.86L776.62-152.86Q771.34-152.86 771.34-158.47L771.34-158.47Q771.34-159.79 771.83-160.95Q772.33-162.10 772.33-162.60Q772.33-163.09 772.00-163.26L772.00-163.26Q771.50-163.26 765.64-158.80Q759.79-154.35 755.41-154.35Q751.04-154.35 751.04-158.97Q751.04-163.59 757.23-171.43Q763.42-179.26 773.81-185.70Q784.21-192.13 794.11-192.13L794.11-192.13Q796.42-192.13 797.98-190.98Q799.55-189.82 799.55-187.43Q799.55-185.04 794.77-180.25Q789.98-175.47 786.52-175.47ZM852.02-180.25L855.49-183.06Q856.64-183.88 857.63-183.88Q858.62-183.88 858.62-182.73L858.62-182.73L858.62-182.40Q846.25-172.50 834.20-163.84Q822.16-155.17 816.55-155.17L816.55-155.17Q812.42-155.17 812.42-159.63Q812.42-164.08 816.38-168.54Q820.34-172.99 824.22-176.29Q828.10-179.59 828.10-180.67Q828.10-181.74 826.86-183.14Q825.62-184.54 824.80-185.04L824.80-185.04Q821.99-182.23 812.59-174.81L812.59-174.81L811.93-177.28Q822.32-185.53 823.97-188.34L823.97-188.34L823.97-189.82Q823.97-193.95 824.80-195.43Q825.62-196.92 828.76-199.56Q831.89-202.20 833.05-202.20Q834.20-202.20 835.11-201.37Q836.02-200.55 836.02-199.72Q836.02-198.90 835.44-197.83Q834.86-196.75 834.28-196.01Q833.71-195.27 832.72-194.20Q831.73-193.12 831.48-192.71Q831.23-192.30 830.98-191.31Q830.74-190.32 829.91-189.66Q829.09-189.00 829.09-188.01Q829.09-187.02 830.41-183.64Q831.73-180.25 831.73-178.69Q831.73-177.12 825.62-171.26Q819.52-165.40 819.52-161.77L819.52-161.77Q819.52-159.79 821.33-159.79L821.33-159.79Q823.64-159.79 829.91-163.92L829.91-163.92L831.89-165.24Q842.62-172.66 852.02-180.25L852.02-180.25Z"></path></g></g></svg>